<?xml version="1.0" encoding="utf-8"?>
<!-- Generator: Adobe Illustrator 19.2.1, SVG Export Plug-In . SVG Version: 6.00 Build 0)  -->
<svg version="1.1" id="layer" xmlns="http://www.w3.org/2000/svg" xmlns:xlink="http://www.w3.org/1999/xlink" x="0px" y="0px"
	 viewBox="0 0 652 652" style="enable-background:new 0 0 652 652;" xml:space="preserve">
<path d="M75.7,270v-15c0-1.6,0-4.1-2.2-4.1c-2.1,0-2.1,2.5-2.1,4.1v15c0,1.3,0.7,2.4,2.1,2.4C75,272.5,75.7,271.3,75.7,270
	 M115,264.5h5.9l-3-8.2L115,264.5z M157.9,272.9H136V272h2.4v-20.6H136v-0.9h15.1v0.9h-2.8V272h1.5c4.8,0,6.3-4,7.3-8h0.9
	C157.9,264,157.9,272.9,157.9,272.9z M135.4,272.9h-14.2V272h2.3l-2.3-6.6h-6.5l-1.3,3.4c-0.9,2.4,0.4,3.1,1.2,3.1h0.9v0.9h-6.2V272
	h0.7c1,0,1.8-1.9,2.3-3.3l6.6-18.2h6.7l7.9,21.5h1.8L135.4,272.9L135.4,272.9z M110.8,258.8h-1c-0.7-3.2-2.2-7-6-7.3V272h2.9v0.9H91
	V272h3v-20.6c-3.8,0.3-5.2,4.2-6,7.3h-1l0.2-8.2h23.5L110.8,258.8z M86.1,261.7c0,6.9-5.6,11.7-12.6,11.7c-7.4,0-12.6-5.4-12.6-11.7
	c0-7.2,6-11.6,12.6-11.6C80.2,250.1,86.1,254.8,86.1,261.7 M59.8,258.8h-1c-0.7-3.2-2.2-7-6-7.3V272h2.9v0.9H40V272h3v-20.6
	c-3.8,0.3-5.2,4.2-6,7.3h-1l0.2-8.2h23.5C59.6,250.5,59.8,258.8,59.8,258.8z M168.5,281.8c0-10,0-42.6,0-42.6H26.1v173.5h63.6
	c2.3,0,2.5-0.8,2.5-3.6v-46.5h66.3c2.5,0,2.3-0.3,2.3-2.6v-41.6c0-2,0.3-3.1-2.3-3.1H92.2v-31.4h74
	C168.8,284.1,168.5,283.8,168.5,281.8 M250.1,410.4c0-40.2,0.2-171.2,0.2-171.2h-68.7c0,0,0.1,105.2,0.1,171.2c0,2.6,0,2.3,2.8,2.3
	h62.7C249.9,412.7,250.1,412.5,250.1,410.4 M402.7,410.4v-42.8c0-2-0.6-2.6-3.1-2.6h-69.2l0.2-125.9h-66.2c0,0,0,105.2,0,171.2
	c0,2.6,0,2.3,2.8,2.3h132.7C402.4,412.7,402.7,412.5,402.7,410.4 M565.9,413h60.2V239.2c0,0-92.4,70.1-106.3,80.8
	c-13.3-10.8-104.8-80.8-104.8-80.8s0,118.1,0.1,170.2c0,2.8,0,3.3,2.8,3.3h54.9c3.1,0,3.7-0.3,3.7-3.6l0-51c0,0,25.9,22.8,38.7,32
	c1.4,1,2,1.3,2.5,1.3c0.6,0,1.4-0.3,2.5-1.3c11.9-8.5,43-32,43-32l0,52.8C563.3,412.2,563.6,413,565.9,413"/>
</svg>
