<svg width="652" height="200" xmlns="http://www.w3.org/2000/svg" xml:space="preserve" version="1.1">

 <g>
  <title>Layer 1</title>
  <path id="svg_1" d="m72.7,42l0,-15c0,-1.6 0,-4.1 -2.2,-4.1c-2.1,0 -2.1,2.5 -2.1,4.1l0,15c0,1.3 0.7,2.4 2.1,2.4c1.5,0.1 2.2,-1.1 2.2,-2.4m39.3,-5.5l5.9,0l-3,-8.2l-2.9,8.2zm42.9,8.4l-21.9,0l0,-0.9l2.4,0l0,-20.6l-2.4,0l0,-0.9l15.1,0l0,0.9l-2.8,0l0,20.6l1.5,0c4.8,0 6.3,-4 7.3,-8l0.9,0c-0.1,0 -0.1,8.9 -0.1,8.9zm-22.5,0l-14.2,0l0,-0.9l2.3,0l-2.3,-6.6l-6.5,0l-1.3,3.4c-0.9,2.4 0.4,3.1 1.2,3.1l0.9,0l0,0.9l-6.2,0l0,-0.8l0.7,0c1,0 1.8,-1.9 2.3,-3.3l6.6,-18.2l6.7,0l7.9,21.5l1.8,0l0.1,0.9l0,0zm-24.6,-14.1l-1,0c-0.7,-3.2 -2.2,-7 -6,-7.3l0,20.5l2.9,0l0,0.9l-15.7,0l0,-0.9l3,0l0,-20.6c-3.8,0.3 -5.2,4.2 -6,7.3l-1,0l0.2,-8.2l23.5,0l0.1,8.3zm-24.7,2.9c0,6.9 -5.6,11.7 -12.6,11.7c-7.4,0 -12.6,-5.4 -12.6,-11.7c0,-7.2 6,-11.6 12.6,-11.6c6.7,0 12.6,4.7 12.6,11.6m-26.3,-2.9l-1,0c-0.7,-3.2 -2.2,-7 -6,-7.3l0,20.5l2.9,0l0,0.9l-15.7,0l0,-0.9l3,0l0,-20.6c-3.8,0.3 -5.2,4.2 -6,7.3l-1,0l0.2,-8.2l23.5,0c-0.1,0 0.1,8.3 0.1,8.3zm108.7,23c0,-10 0,-42.6 0,-42.6l-142.4,0l0,173.5l63.6,0c2.3,0 2.5,-0.8 2.5,-3.6l0,-46.5l66.3,0c2.5,0 2.3,-0.3 2.3,-2.6l0,-41.6c0,-2 0.3,-3.1 -2.3,-3.1l-66.3,0l0,-31.4l74,0c2.6,0.2 2.3,-0.1 2.3,-2.1m81.6,128.6c0,-40.2 0.2,-171.2 0.2,-171.2l-68.7,0c0,0 0.1,105.2 0.1,171.2c0,2.6 0,2.3 2.8,2.3l62.7,0c2.7,0 2.9,-0.2 2.9,-2.3m152.6,0l0,-42.8c0,-2 -0.6,-2.6 -3.1,-2.6l-69.2,0l0.2,-125.9l-66.2,0c0,0 0,105.2 0,171.2c0,2.6 0,2.3 2.8,2.3l132.7,0c2.5,0.1 2.8,-0.1 2.8,-2.2m163.2,2.6l60.2,0l0,-173.8c0,0 -92.4,70.1 -106.3,80.8c-13.3,-10.8 -104.8,-80.8 -104.8,-80.8s0,118.1 0.1,170.2c0,2.8 0,3.3 2.8,3.3l54.9,0c3.1,0 3.7,-0.3 3.7,-3.6l0,-51c0,0 25.9,22.8 38.7,32c1.4,1 2,1.3 2.5,1.3c0.6,0 1.4,-0.3 2.5,-1.3c11.9,-8.5 43,-32 43,-32l0,52.8c0.1,1.3 0.4,2.1 2.7,2.1"/>
 </g>
</svg>